<svg xmlns="http://www.w3.org/2000/svg" xmlns:xlink="http://www.w3.org/1999/xlink" width="1080" zoomAndPan="magnify" viewBox="0 0 810 809.999993" height="1080" preserveAspectRatio="xMidYMid meet" version="1.0"><defs><g/></defs><g fill="#000000" fill-opacity="1"><g transform="translate(80.999999, 380.228965)"><g><path d="M 17.984375 0 L 14.09375 0 L 12.671875 -4.3125 L 5.5 -4.3125 L 4.09375 0 L 0.28125 0 L 6.75 -18.734375 L 11.515625 -18.734375 Z M 8.90625 -14.828125 L 6.5 -7.4375 L 11.65625 -7.4375 L 9.234375 -14.828125 Z M 8.90625 -14.828125 "/></g></g><g transform="translate(99.259486, 380.228965)"><g><path d="M 6.984375 0.265625 C 5.867188 0.265625 4.878906 -0.00390625 4.015625 -0.546875 C 3.160156 -1.085938 2.488281 -1.90625 2 -3 C 1.507812 -4.101562 1.265625 -5.457031 1.265625 -7.0625 C 1.265625 -8.675781 1.515625 -10.03125 2.015625 -11.125 C 2.515625 -12.226562 3.207031 -13.050781 4.09375 -13.59375 C 4.976562 -14.132812 6.003906 -14.40625 7.171875 -14.40625 C 8.046875 -14.40625 8.804688 -14.253906 9.453125 -13.953125 C 10.097656 -13.648438 10.644531 -13.175781 11.09375 -12.53125 L 11.359375 -12.59375 L 11.359375 -19.8125 L 14.90625 -19.8125 L 14.90625 0 L 11.359375 0 L 11.359375 -1.828125 L 11.09375 -1.890625 C 10.695312 -1.222656 10.15625 -0.695312 9.46875 -0.3125 C 8.789062 0.0703125 7.960938 0.265625 6.984375 0.265625 Z M 8.140625 -2.75 C 9.140625 -2.75 9.925781 -3.101562 10.5 -3.8125 C 11.082031 -4.53125 11.375 -5.613281 11.375 -7.0625 C 11.375 -8.507812 11.082031 -9.59375 10.5 -10.3125 C 9.925781 -11.03125 9.140625 -11.390625 8.140625 -11.390625 C 7.097656 -11.390625 6.300781 -11.039062 5.75 -10.34375 C 5.195312 -9.65625 4.921875 -8.5625 4.921875 -7.0625 C 4.921875 -5.570312 5.195312 -4.476562 5.75 -3.78125 C 6.300781 -3.09375 7.097656 -2.75 8.140625 -2.75 Z M 8.140625 -2.75 "/></g></g><g transform="translate(116.199164, 380.228965)"><g><path d="M 6.984375 0.265625 C 5.867188 0.265625 4.878906 -0.00390625 4.015625 -0.546875 C 3.160156 -1.085938 2.488281 -1.90625 2 -3 C 1.507812 -4.101562 1.265625 -5.457031 1.265625 -7.0625 C 1.265625 -8.675781 1.515625 -10.03125 2.015625 -11.125 C 2.515625 -12.226562 3.207031 -13.050781 4.09375 -13.59375 C 4.976562 -14.132812 6.003906 -14.40625 7.171875 -14.40625 C 8.046875 -14.40625 8.804688 -14.253906 9.453125 -13.953125 C 10.097656 -13.648438 10.644531 -13.175781 11.09375 -12.53125 L 11.359375 -12.59375 L 11.359375 -19.8125 L 14.90625 -19.8125 L 14.90625 0 L 11.359375 0 L 11.359375 -1.828125 L 11.09375 -1.890625 C 10.695312 -1.222656 10.15625 -0.695312 9.46875 -0.3125 C 8.789062 0.0703125 7.960938 0.265625 6.984375 0.265625 Z M 8.140625 -2.75 C 9.140625 -2.75 9.925781 -3.101562 10.5 -3.8125 C 11.082031 -4.53125 11.375 -5.613281 11.375 -7.0625 C 11.375 -8.507812 11.082031 -9.59375 10.5 -10.3125 C 9.925781 -11.03125 9.140625 -11.390625 8.140625 -11.390625 C 7.097656 -11.390625 6.300781 -11.039062 5.75 -10.34375 C 5.195312 -9.65625 4.921875 -8.5625 4.921875 -7.0625 C 4.921875 -5.570312 5.195312 -4.476562 5.75 -3.78125 C 6.300781 -3.09375 7.097656 -2.75 8.140625 -2.75 Z M 8.140625 -2.75 "/></g></g><g transform="translate(133.138842, 380.228965)"><g/></g><g transform="translate(139.327846, 380.228965)"><g><path d="M 5.515625 0.265625 C 4.609375 0.265625 3.820312 0.0976562 3.15625 -0.234375 C 2.488281 -0.566406 1.972656 -1.054688 1.609375 -1.703125 C 1.253906 -2.347656 1.078125 -3.125 1.078125 -4.03125 C 1.078125 -4.863281 1.253906 -5.5625 1.609375 -6.125 C 1.972656 -6.695312 2.53125 -7.164062 3.28125 -7.53125 C 4.03125 -7.894531 5.015625 -8.175781 6.234375 -8.375 C 7.078125 -8.507812 7.71875 -8.65625 8.15625 -8.8125 C 8.59375 -8.976562 8.890625 -9.160156 9.046875 -9.359375 C 9.203125 -9.566406 9.28125 -9.832031 9.28125 -10.15625 C 9.28125 -10.601562 9.117188 -10.945312 8.796875 -11.1875 C 8.484375 -11.425781 7.960938 -11.546875 7.234375 -11.546875 C 6.441406 -11.546875 5.691406 -11.367188 4.984375 -11.015625 C 4.273438 -10.671875 3.660156 -10.210938 3.140625 -9.640625 L 2.890625 -9.640625 L 1.390625 -11.875 C 2.109375 -12.675781 2.984375 -13.296875 4.015625 -13.734375 C 5.054688 -14.179688 6.1875 -14.40625 7.40625 -14.40625 C 9.28125 -14.40625 10.632812 -14.003906 11.46875 -13.203125 C 12.3125 -12.410156 12.734375 -11.285156 12.734375 -9.828125 L 12.734375 -3.6875 C 12.734375 -3.0625 13.007812 -2.75 13.5625 -2.75 C 13.769531 -2.75 13.976562 -2.785156 14.1875 -2.859375 L 14.375 -2.8125 L 14.625 -0.328125 C 14.425781 -0.203125 14.148438 -0.0976562 13.796875 -0.015625 C 13.453125 0.0664062 13.070312 0.109375 12.65625 0.109375 C 11.800781 0.109375 11.132812 -0.0507812 10.65625 -0.375 C 10.1875 -0.707031 9.851562 -1.21875 9.65625 -1.90625 L 9.375 -1.9375 C 8.6875 -0.46875 7.398438 0.265625 5.515625 0.265625 Z M 6.640625 -2.390625 C 7.460938 -2.390625 8.117188 -2.660156 8.609375 -3.203125 C 9.097656 -3.753906 9.34375 -4.523438 9.34375 -5.515625 L 9.34375 -6.953125 L 9.09375 -7 C 8.882812 -6.820312 8.601562 -6.675781 8.25 -6.5625 C 7.90625 -6.445312 7.410156 -6.335938 6.765625 -6.234375 C 5.992188 -6.097656 5.4375 -5.875 5.09375 -5.5625 C 4.757812 -5.25 4.59375 -4.8125 4.59375 -4.25 C 4.59375 -3.632812 4.769531 -3.171875 5.125 -2.859375 C 5.488281 -2.546875 5.992188 -2.390625 6.640625 -2.390625 Z M 6.640625 -2.390625 "/></g></g><g transform="translate(154.23015, 380.228965)"><g/></g><g transform="translate(160.419155, 380.228965)"><g><path d="M 2.03125 0 L 2.03125 -19.8125 L 5.59375 -19.8125 L 5.59375 -12.296875 L 5.859375 -12.234375 C 6.328125 -12.929688 6.898438 -13.46875 7.578125 -13.84375 C 8.265625 -14.21875 9.09375 -14.40625 10.0625 -14.40625 C 13.175781 -14.40625 14.734375 -12.632812 14.734375 -9.09375 L 14.734375 0 L 11.1875 0 L 11.1875 -8.65625 C 11.1875 -9.613281 10.992188 -10.3125 10.609375 -10.75 C 10.222656 -11.1875 9.625 -11.40625 8.8125 -11.40625 C 7.820312 -11.40625 7.035156 -11.070312 6.453125 -10.40625 C 5.878906 -9.75 5.59375 -8.71875 5.59375 -7.3125 L 5.59375 0 Z M 2.03125 0 "/></g></g><g transform="translate(176.974423, 380.228965)"><g><path d="M 13.96875 -6.265625 L 4.890625 -6.265625 C 4.984375 -5.035156 5.328125 -4.140625 5.921875 -3.578125 C 6.523438 -3.023438 7.34375 -2.75 8.375 -2.75 C 9.1875 -2.75 9.84375 -2.898438 10.34375 -3.203125 C 10.851562 -3.503906 11.265625 -3.960938 11.578125 -4.578125 L 11.84375 -4.578125 L 14.203125 -3.0625 C 13.742188 -2.070312 13.046875 -1.269531 12.109375 -0.65625 C 11.179688 -0.0390625 9.9375 0.265625 8.375 0.265625 C 6.914062 0.265625 5.65625 -0.0078125 4.59375 -0.5625 C 3.53125 -1.113281 2.707031 -1.9375 2.125 -3.03125 C 1.550781 -4.132812 1.265625 -5.476562 1.265625 -7.0625 C 1.265625 -8.664062 1.566406 -10.019531 2.171875 -11.125 C 2.785156 -12.226562 3.609375 -13.050781 4.640625 -13.59375 C 5.671875 -14.132812 6.832031 -14.40625 8.125 -14.40625 C 10.125 -14.40625 11.65625 -13.875 12.71875 -12.8125 C 13.78125 -11.757812 14.3125 -10.207031 14.3125 -8.15625 C 14.3125 -7.40625 14.285156 -6.828125 14.234375 -6.421875 Z M 10.921875 -8.5625 C 10.890625 -9.632812 10.640625 -10.414062 10.171875 -10.90625 C 9.703125 -11.40625 9.019531 -11.65625 8.125 -11.65625 C 6.332031 -11.65625 5.273438 -10.625 4.953125 -8.5625 Z M 10.921875 -8.5625 "/></g></g><g transform="translate(192.338019, 380.228965)"><g><path d="M 5.515625 0.265625 C 4.609375 0.265625 3.820312 0.0976562 3.15625 -0.234375 C 2.488281 -0.566406 1.972656 -1.054688 1.609375 -1.703125 C 1.253906 -2.347656 1.078125 -3.125 1.078125 -4.03125 C 1.078125 -4.863281 1.253906 -5.5625 1.609375 -6.125 C 1.972656 -6.695312 2.53125 -7.164062 3.28125 -7.53125 C 4.03125 -7.894531 5.015625 -8.175781 6.234375 -8.375 C 7.078125 -8.507812 7.71875 -8.65625 8.15625 -8.8125 C 8.59375 -8.976562 8.890625 -9.160156 9.046875 -9.359375 C 9.203125 -9.566406 9.28125 -9.832031 9.28125 -10.15625 C 9.28125 -10.601562 9.117188 -10.945312 8.796875 -11.1875 C 8.484375 -11.425781 7.960938 -11.546875 7.234375 -11.546875 C 6.441406 -11.546875 5.691406 -11.367188 4.984375 -11.015625 C 4.273438 -10.671875 3.660156 -10.210938 3.140625 -9.640625 L 2.890625 -9.640625 L 1.390625 -11.875 C 2.109375 -12.675781 2.984375 -13.296875 4.015625 -13.734375 C 5.054688 -14.179688 6.1875 -14.40625 7.40625 -14.40625 C 9.28125 -14.40625 10.632812 -14.003906 11.46875 -13.203125 C 12.3125 -12.410156 12.734375 -11.285156 12.734375 -9.828125 L 12.734375 -3.6875 C 12.734375 -3.0625 13.007812 -2.75 13.5625 -2.75 C 13.769531 -2.75 13.976562 -2.785156 14.1875 -2.859375 L 14.375 -2.8125 L 14.625 -0.328125 C 14.425781 -0.203125 14.148438 -0.0976562 13.796875 -0.015625 C 13.453125 0.0664062 13.070312 0.109375 12.65625 0.109375 C 11.800781 0.109375 11.132812 -0.0507812 10.65625 -0.375 C 10.1875 -0.707031 9.851562 -1.21875 9.65625 -1.90625 L 9.375 -1.9375 C 8.6875 -0.46875 7.398438 0.265625 5.515625 0.265625 Z M 6.640625 -2.390625 C 7.460938 -2.390625 8.117188 -2.660156 8.609375 -3.203125 C 9.097656 -3.753906 9.34375 -4.523438 9.34375 -5.515625 L 9.34375 -6.953125 L 9.09375 -7 C 8.882812 -6.820312 8.601562 -6.675781 8.25 -6.5625 C 7.90625 -6.445312 7.410156 -6.335938 6.765625 -6.234375 C 5.992188 -6.097656 5.4375 -5.875 5.09375 -5.5625 C 4.757812 -5.25 4.59375 -4.8125 4.59375 -4.25 C 4.59375 -3.632812 4.769531 -3.171875 5.125 -2.859375 C 5.488281 -2.546875 5.992188 -2.390625 6.640625 -2.390625 Z M 6.640625 -2.390625 "/></g></g><g transform="translate(207.240322, 380.228965)"><g><path d="M 6.984375 0.265625 C 5.867188 0.265625 4.878906 -0.00390625 4.015625 -0.546875 C 3.160156 -1.085938 2.488281 -1.90625 2 -3 C 1.507812 -4.101562 1.265625 -5.457031 1.265625 -7.0625 C 1.265625 -8.675781 1.515625 -10.03125 2.015625 -11.125 C 2.515625 -12.226562 3.207031 -13.050781 4.09375 -13.59375 C 4.976562 -14.132812 6.003906 -14.40625 7.171875 -14.40625 C 8.046875 -14.40625 8.804688 -14.253906 9.453125 -13.953125 C 10.097656 -13.648438 10.644531 -13.175781 11.09375 -12.53125 L 11.359375 -12.59375 L 11.359375 -19.8125 L 14.90625 -19.8125 L 14.90625 0 L 11.359375 0 L 11.359375 -1.828125 L 11.09375 -1.890625 C 10.695312 -1.222656 10.15625 -0.695312 9.46875 -0.3125 C 8.789062 0.0703125 7.960938 0.265625 6.984375 0.265625 Z M 8.140625 -2.75 C 9.140625 -2.75 9.925781 -3.101562 10.5 -3.8125 C 11.082031 -4.53125 11.375 -5.613281 11.375 -7.0625 C 11.375 -8.507812 11.082031 -9.59375 10.5 -10.3125 C 9.925781 -11.03125 9.140625 -11.390625 8.140625 -11.390625 C 7.097656 -11.390625 6.300781 -11.039062 5.75 -10.34375 C 5.195312 -9.65625 4.921875 -8.5625 4.921875 -7.0625 C 4.921875 -5.570312 5.195312 -4.476562 5.75 -3.78125 C 6.300781 -3.09375 7.097656 -2.75 8.140625 -2.75 Z M 8.140625 -2.75 "/></g></g><g transform="translate(224.18, 380.228965)"><g><path d="M 3.8125 -15.828125 C 3.164062 -15.828125 2.640625 -16.019531 2.234375 -16.40625 C 1.835938 -16.800781 1.640625 -17.304688 1.640625 -17.921875 C 1.640625 -18.523438 1.835938 -19.019531 2.234375 -19.40625 C 2.640625 -19.800781 3.164062 -20 3.8125 -20 C 4.238281 -20 4.617188 -19.90625 4.953125 -19.71875 C 5.285156 -19.539062 5.539062 -19.296875 5.71875 -18.984375 C 5.90625 -18.671875 6 -18.316406 6 -17.921875 C 6 -17.515625 5.90625 -17.15625 5.71875 -16.84375 C 5.539062 -16.53125 5.285156 -16.28125 4.953125 -16.09375 C 4.617188 -15.914062 4.238281 -15.828125 3.8125 -15.828125 Z M 2.03125 0 L 2.03125 -14.140625 L 5.59375 -14.140625 L 5.59375 0 Z M 2.03125 0 "/></g></g><g transform="translate(231.791323, 380.228965)"><g><path d="M 2.03125 0 L 2.03125 -14.140625 L 5.453125 -14.140625 L 5.453125 -12.0625 L 5.71875 -12 C 6.59375 -13.601562 8.019531 -14.40625 10 -14.40625 C 11.632812 -14.40625 12.832031 -13.957031 13.59375 -13.0625 C 14.351562 -12.175781 14.734375 -10.882812 14.734375 -9.1875 L 14.734375 0 L 11.1875 0 L 11.1875 -8.75 C 11.1875 -9.695312 11 -10.375 10.625 -10.78125 C 10.25 -11.195312 9.644531 -11.40625 8.8125 -11.40625 C 7.800781 -11.40625 7.007812 -11.078125 6.4375 -10.421875 C 5.875 -9.765625 5.59375 -8.726562 5.59375 -7.3125 L 5.59375 0 Z M 2.03125 0 "/></g></g><g transform="translate(248.346591, 380.228965)"><g><path d="M 7.328125 6 C 4.992188 6 3.269531 5.65625 2.15625 4.96875 C 1.050781 4.289062 0.5 3.335938 0.5 2.109375 C 0.5 1.367188 0.734375 0.757812 1.203125 0.28125 C 1.679688 -0.1875 2.363281 -0.503906 3.25 -0.671875 L 3.25 -0.9375 C 2.769531 -1.226562 2.425781 -1.550781 2.21875 -1.90625 C 2.007812 -2.257812 1.90625 -2.671875 1.90625 -3.140625 C 1.90625 -4.273438 2.644531 -5.039062 4.125 -5.4375 L 4.125 -5.703125 C 3.363281 -6.140625 2.789062 -6.679688 2.40625 -7.328125 C 2.019531 -7.972656 1.828125 -8.753906 1.828125 -9.671875 C 1.828125 -10.609375 2.039062 -11.429688 2.46875 -12.140625 C 2.90625 -12.859375 3.539062 -13.414062 4.375 -13.8125 C 5.207031 -14.207031 6.207031 -14.40625 7.375 -14.40625 C 8.550781 -14.40625 9.488281 -14.203125 10.1875 -13.796875 C 10.625 -14.421875 10.878906 -15.148438 10.953125 -15.984375 L 11.21875 -16.15625 L 13.765625 -15.515625 C 13.691406 -14.847656 13.492188 -14.285156 13.171875 -13.828125 C 12.859375 -13.367188 12.367188 -12.957031 11.703125 -12.59375 L 11.703125 -12.3125 C 12.492188 -11.613281 12.890625 -10.632812 12.890625 -9.375 C 12.890625 -8.507812 12.671875 -7.726562 12.234375 -7.03125 C 11.804688 -6.34375 11.175781 -5.796875 10.34375 -5.390625 C 9.507812 -4.992188 8.519531 -4.796875 7.375 -4.796875 L 6.828125 -4.8125 C 6.484375 -4.820312 6.242188 -4.828125 6.109375 -4.828125 C 5.785156 -4.828125 5.53125 -4.738281 5.34375 -4.5625 C 5.164062 -4.394531 5.078125 -4.171875 5.078125 -3.890625 C 5.078125 -3.597656 5.195312 -3.367188 5.4375 -3.203125 C 5.675781 -3.035156 6.023438 -2.941406 6.484375 -2.921875 L 9.65625 -2.8125 C 12.78125 -2.71875 14.34375 -1.367188 14.34375 1.234375 C 14.34375 2.148438 14.109375 2.960938 13.640625 3.671875 C 13.179688 4.390625 12.425781 4.957031 11.375 5.375 C 10.332031 5.789062 8.984375 6 7.328125 6 Z M 7.375 -7.28125 C 8.050781 -7.28125 8.582031 -7.476562 8.96875 -7.875 C 9.351562 -8.28125 9.546875 -8.851562 9.546875 -9.59375 C 9.546875 -10.34375 9.351562 -10.914062 8.96875 -11.3125 C 8.582031 -11.707031 8.050781 -11.90625 7.375 -11.90625 C 6.675781 -11.90625 6.140625 -11.707031 5.765625 -11.3125 C 5.390625 -10.914062 5.203125 -10.34375 5.203125 -9.59375 C 5.203125 -8.84375 5.390625 -8.269531 5.765625 -7.875 C 6.140625 -7.476562 6.675781 -7.28125 7.375 -7.28125 Z M 7.328125 3.421875 C 8.546875 3.421875 9.429688 3.25 9.984375 2.90625 C 10.535156 2.5625 10.8125 2.117188 10.8125 1.578125 C 10.8125 1.128906 10.664062 0.800781 10.375 0.59375 C 10.09375 0.382812 9.644531 0.269531 9.03125 0.25 L 6.234375 0.125 C 6.140625 0.125 6.050781 0.117188 5.96875 0.109375 C 5.894531 0.109375 5.820312 0.109375 5.75 0.109375 C 5.144531 0.109375 4.6875 0.234375 4.375 0.484375 C 4.0625 0.742188 3.90625 1.097656 3.90625 1.546875 C 3.90625 2.148438 4.191406 2.613281 4.765625 2.9375 C 5.335938 3.257812 6.191406 3.421875 7.328125 3.421875 Z M 7.328125 3.421875 "/></g></g></g><path fill="#f3bd50" d="M 405 0 C 181.339844 0 0 181.339844 0 405 C 0 628.660156 181.339844 810 405 810 C 628.660156 810 810 628.660156 810 405 C 810 181.339844 628.660156 0 405 0 Z M 383.378906 238.558594 L 481.003906 238.558594 L 481.003906 455.425781 L 524.574219 455.425781 L 524.574219 513.304688 L 481.003906 513.304688 L 481.003906 571.441406 L 414.492188 571.441406 L 414.492188 513.304688 L 251.609375 513.304688 L 251.609375 451.734375 C 281.613281 395.203125 325.023438 326.441406 383.378906 238.558594 Z M 412.449219 292.742188 C 382.007812 338.203125 352.234375 384.792969 314.164062 453.777344 L 314.164062 457.46875 L 416.140625 457.46875 L 416.140625 292.742188 Z M 412.449219 292.742188 " fill-opacity="1" fill-rule="nonzero"/></svg>